# xmcd
#
# Track frame offsets:
#	150
#	15075
#	41475
#	54937
#	70350
#	91425
#	114862
#	134062
#	154087
#	172537
#
# Disc length: 2524 seconds
#
# Revision: 0
# Processed by: cddbd v1.5.2PL0 Copyright (c) Steve Scherf et al.
# Submitted via: EasyCDDAExtractor 16.0.1.1
#
DISCID=7009da0a
DTITLE=Phil Leadbetter - Philibuster
DYEAR=1999
DGENRE=Guitar
TTITLE0=Philibuster
TTITLE1=House of the Rising Sun
TTITLE2=Yesterday
TTITLE3=Big Mon
TTITLE4=Old Rugged Cross
TTITLE5=Happy Together
TTITLE6=New Camptown Races
TTITLE7=E.M.D
TTITLE8=Runaround
TTITLE9=I'm So Lonesome I Could Cry
EXTD=
EXTT0=
EXTT1=
EXTT2=
EXTT3=
EXTT4=
EXTT5=
EXTT6=
EXTT7=
EXTT8=
EXTT9=
PLAYORDER=
